<?xml version="1.0" encoding="UTF-8"?>
<svg id="Layer_1" data-name="Layer 1" xmlns="http://www.w3.org/2000/svg" viewBox="0 0 99.55 110.28">
  <defs>
    <style>
      .cls-1 {
        fill: #00860d;
      }
    </style>
  </defs>
  <polygon class="cls-1" points="40.72 110.28 44.33 110.28 40.73 85.39 40.72 110.28"/>
  <path class="cls-1" d="m98.49,19.62c0-9.28.27-14.18,1.06-19.62h-28.5c.8,5.17,1.06,10.47,1.06,19.62v22H27.44v-22c0-8.22.27-13.39,1.06-19.62H0c.8,5.7,1.06,10.47,1.06,19.62v71.05c0,9.28-.27,14.18-1.06,19.62h28.5s0,0,0,0h.23v-42.84h17.75c.53,3.17,1.07,6.91,1.63,11.21l1.95,13.42,3.15-24.63h17.85v42.84h0s0,0,0,0h28.5c-.79-6.5-1.06-11-1.06-19.62V19.62Z"/>
  <polygon class="cls-1" points="55.59 110.28 59.05 110.28 59.04 84.58 55.59 110.28"/>
</svg>